<svg version="1.1" id="Layer_1" xmlns="http://www.w3.org/2000/svg" xmlns:xlink="http://www.w3.org/1999/xlink" x="0px" y="0px"
	 width="100%" viewBox="0 0 315 219" enable-background="new 0 0 315 219" xml:space="preserve">
<path fill="#F5F6F6" opacity="1.000000" stroke="none" 
	d="
M316.000000,15.999996 
	C316.000000,80.354225 316.000000,144.708450 315.688660,209.296448 
	C312.918213,213.020157 310.459106,216.510086 308.000000,220.000000 
	C209.312439,220.000000 110.624878,220.000000 11.713289,219.697250 
	C8.548271,214.737259 5.626614,210.067551 2.642148,205.438339 
	C2.263097,204.850372 1.555428,204.474258 1.000000,204.000000 
	C1.000000,143.645767 1.000000,83.291542 1.338294,22.695004 
	C4.763056,12.018293 10.908171,4.636538 21.935305,2.085674 
	C22.035236,2.062557 21.981821,1.376531 22.000000,1.000000 
	C52.020893,1.000000 82.041786,1.000000 112.446045,1.344474 
	C113.219597,1.459300 113.609802,1.229651 114.000000,1.000001 
	C114.444443,1.000000 114.888893,1.000000 115.579399,1.346905 
	C116.216972,1.462540 116.608490,1.231271 117.000000,1.000001 
	C118.388893,1.000000 119.777779,1.000000 121.305756,1.330535 
	C121.161217,3.254920 121.298271,5.098126 120.525421,6.401993 
	C115.653091,14.622016 113.274529,23.476873 114.117668,32.948368 
	C114.654144,38.974953 116.092300,44.921268 116.643005,50.941158 
	C109.186707,50.985863 102.213310,50.960133 95.240410,51.007633 
	C84.153328,51.083160 75.645691,58.206188 73.604752,69.183167 
	C72.181641,76.837212 70.812660,84.503090 69.559029,92.186440 
	C67.853386,102.640091 66.280807,113.115448 64.389442,123.743423 
	C64.027092,124.656937 63.926476,125.408539 63.706730,126.554428 
	C63.487778,128.318008 63.387955,129.687286 63.033356,131.348114 
	C62.093475,136.478867 61.408363,141.318100 60.596443,146.462265 
	C60.429493,147.202988 60.389355,147.638779 60.064919,148.334656 
	C59.091671,152.292801 58.262009,155.971375 57.746338,159.693451 
	C56.946716,165.465012 56.361149,171.266251 55.609322,177.292725 
	C55.472214,177.864929 55.490829,178.194748 55.313263,178.769684 
	C54.223656,183.425171 52.734810,187.841827 52.805061,192.233536 
	C52.864216,195.931580 54.735928,199.600616 55.848148,203.469940 
	C55.891018,203.657394 56.150162,203.941528 56.134827,204.293213 
	C60.209873,212.494598 67.217888,215.374603 75.497337,215.407593 
	C107.465034,215.534943 139.433456,215.482590 171.401611,215.491684 
	C195.377777,215.498505 219.354752,215.618912 243.329819,215.457535 
	C260.305847,215.343262 270.670441,200.405792 264.711731,184.736008 
	C264.630829,184.008392 264.542877,183.597565 264.623718,182.775787 
	C264.700562,181.210037 264.692413,180.041367 264.504059,178.902512 
	C261.936707,163.381119 259.407501,147.852966 256.728302,132.350784 
	C255.609665,125.878281 254.159134,119.463158 252.832550,112.635902 
	C252.632568,111.235863 252.459579,110.221863 252.402054,108.832458 
	C251.696655,105.952019 250.875793,103.446991 250.082397,100.522934 
	C248.483261,90.078934 247.049194,80.017586 245.164764,70.041306 
	C243.830734,62.978916 240.468643,57.027500 233.503632,53.348999 
	C232.510101,52.871758 231.715042,52.650757 230.578384,52.279228 
	C229.498016,52.056854 228.759232,51.985008 227.920197,51.676964 
	C227.188248,51.407703 226.556549,51.374645 225.498322,51.256100 
	C217.614059,51.128006 210.156372,51.085400 202.663239,50.606625 
	C202.945892,48.050541 203.355759,45.939610 203.564377,43.808975 
	C204.127274,38.060333 205.112808,32.293213 204.998917,26.551908 
	C204.818817,17.473665 200.551865,9.662944 195.992203,2.077182 
	C196.070160,2.047951 196.030396,1.886253 196.414978,1.952116 
	C197.533035,1.678653 198.266525,1.339328 199.000000,1.000002 
	C231.354233,1.000000 263.708466,1.000000 296.304993,1.338828 
	C304.640289,4.168162 311.369263,8.400395 315.256989,16.286600 
	C315.267517,16.307961 315.742157,16.100548 316.000000,15.999996 
z"/>
<path fill="#F6F4F2" opacity="1.000000" stroke="none" 
	d="
M153.000000,0.999998 
	C157.356903,1.000000 161.713806,1.000000 166.627960,1.329175 
	C168.270187,2.329154 169.312149,3.085219 170.446732,3.657699 
	C183.039185,10.011508 189.761993,21.306112 187.848862,35.204090 
	C187.113281,40.547626 183.869461,45.545883 181.478851,50.798653 
	C180.809525,51.044529 180.429840,51.193218 179.602295,51.183754 
	C165.227081,50.913185 151.299698,50.800766 137.256821,50.353466 
	C125.684143,33.038464 129.544128,14.838064 146.788361,4.577137 
	C148.841476,3.355458 150.928619,2.190984 153.000000,0.999998 
z"/>
<path fill="#D9886C" opacity="1.000000" stroke="none" 
	d="
M181.768494,50.701462 
	C183.869461,45.545883 187.113281,40.547626 187.848862,35.204090 
	C189.761993,21.306112 183.039185,10.011508 170.446732,3.657699 
	C169.312149,3.085219 168.270187,2.329154 167.092606,1.329175 
	C167.444443,1.000000 167.888901,1.000000 168.893219,1.368560 
	C178.273483,1.860218 187.093857,1.983315 195.914246,2.106413 
	C200.551865,9.662944 204.818817,17.473665 204.998917,26.551908 
	C205.112808,32.293213 204.127274,38.060333 203.564377,43.808975 
	C203.355759,45.939610 202.945892,48.050541 202.409088,50.756973 
	C201.818207,51.474411 201.446075,51.605335 200.722839,51.529938 
	C199.311356,51.095924 198.250931,50.868237 197.227997,50.328732 
	C198.675369,47.713333 200.535629,45.568680 201.414673,43.077759 
	C204.654449,33.897221 203.251617,24.605938 200.646545,15.647012 
	C197.209442,3.826637 187.095261,-0.807277 176.916534,4.379861 
	C177.483948,5.173206 177.984360,5.959531 178.569580,6.676640 
	C181.635666,10.433673 185.794342,13.726988 187.579361,18.012074 
	C191.238693,26.796669 191.709106,36.016010 187.077362,44.960384 
	C186.205627,46.643791 186.215912,48.783932 185.615433,50.892590 
	C185.280136,51.196087 185.148605,51.320312 184.629776,51.278564 
	C183.417831,50.975544 182.593155,50.838501 181.768494,50.701462 
z"/>
<path fill="#DB8467" opacity="1.000000" stroke="none" 
	d="
M152.600006,0.999998 
	C150.928619,2.190984 148.841476,3.355458 146.788361,4.577137 
	C129.544128,14.838064 125.684143,33.038464 136.835724,50.431358 
	C135.415482,50.769096 134.300812,50.694061 133.132782,50.245575 
	C132.438095,47.670769 131.909119,45.429104 131.136368,43.274899 
	C127.395203,32.845745 127.667152,22.813017 134.079742,13.426618 
	C136.283310,10.201175 138.742676,7.150507 141.085190,4.019995 
	C140.880783,3.595432 140.676361,3.170870 140.471939,2.746308 
	C136.093719,3.100424 131.647003,3.093238 127.355812,3.906525 
	C122.722946,4.784568 122.126411,9.347473 120.320618,12.850848 
	C113.741417,25.614994 114.460472,38.172653 120.511047,50.807549 
	C119.137894,50.914703 118.132019,50.909142 117.126137,50.903580 
	C116.092300,44.921268 114.654144,38.974953 114.117668,32.948368 
	C113.274529,23.476873 115.653091,14.622016 120.525421,6.401993 
	C121.298271,5.098126 121.161217,3.254920 121.722420,1.330535 
	C122.444443,1.000000 122.888893,1.000000 123.871613,1.379417 
	C130.469803,1.868119 136.530548,2.079810 142.589203,2.031507 
	C144.728745,2.014449 146.863220,1.362229 149.000000,1.000000 
	C150.066666,1.000000 151.133347,1.000000 152.600006,0.999998 
z"/>
<path fill="#222222" opacity="1.000000" stroke="none" 
	d="
M21.531088,1.000000 
	C21.981821,1.376531 22.035236,2.062557 21.935305,2.085674 
	C10.908171,4.636538 4.763056,12.018293 1.338294,22.226345 
	C1.000000,15.073850 1.000000,8.147699 1.000000,1.000000 
	C7.685770,1.000000 14.373973,1.000000 21.531088,1.000000 
z"/>
<path fill="#222323" opacity="1.000000" stroke="none" 
	d="
M316.000000,15.527332 
	C315.742157,16.100548 315.267517,16.307961 315.256989,16.286600 
	C311.369263,8.400395 304.640289,4.168162 296.773682,1.338828 
	C303.249146,1.000000 309.498291,1.000000 316.000000,1.000000 
	C316.000000,5.681906 316.000000,10.368290 316.000000,15.527332 
z"/>
<path fill="#222222" opacity="1.000000" stroke="none" 
	d="
M1.000000,204.471191 
	C1.555428,204.474258 2.263097,204.850372 2.642148,205.438339 
	C5.626614,210.067551 8.548271,214.737259 11.244631,219.697250 
	C7.724496,220.000000 4.448993,220.000000 1.000000,220.000000 
	C1.000000,214.981674 1.000000,209.962036 1.000000,204.471191 
z"/>
<path fill="#2E2E2E" opacity="1.000000" stroke="none" 
	d="
M308.494751,220.000000 
	C310.459106,216.510086 312.918213,213.020157 315.688660,209.765106 
	C316.000000,213.240097 316.000000,216.480209 316.000000,220.000000 
	C313.666840,220.000000 311.328156,220.000000 308.494751,220.000000 
z"/>
<path fill="#540D00" opacity="1.000000" stroke="none" 
	d="
M195.992203,2.077182 
	C187.093857,1.983315 178.273483,1.860218 169.226547,1.368560 
	C177.687561,1.000000 186.375137,1.000000 195.529282,1.221895 
	C195.995865,1.443790 196.030396,1.886253 196.030396,1.886253 
	C196.030396,1.886253 196.070160,2.047951 195.992203,2.077182 
z"/>
<path fill="#530D00" opacity="1.000000" stroke="none" 
	d="
M148.531357,1.000000 
	C146.863220,1.362229 144.728745,2.014449 142.589203,2.031507 
	C136.530548,2.079810 130.469803,1.868119 124.204941,1.379417 
	C132.020905,1.000000 140.041809,1.000000 148.531357,1.000000 
z"/>
<path fill="#222323" opacity="1.000000" stroke="none" 
	d="
M196.414978,1.952116 
	C196.030396,1.886253 195.995865,1.443790 195.997925,1.221895 
	C196.750000,1.000000 197.500000,1.000000 198.625000,1.000002 
	C198.266525,1.339328 197.533035,1.678653 196.414978,1.952116 
z"/>
<path fill="#222222" opacity="1.000000" stroke="none" 
	d="
M116.750000,1.000001 
	C116.608490,1.231271 116.216972,1.462540 115.912735,1.346905 
	C116.000000,1.000000 116.500000,1.000000 116.750000,1.000001 
z"/>
<path fill="#222222" opacity="1.000000" stroke="none" 
	d="
M113.750000,1.000001 
	C113.609802,1.229651 113.219597,1.459300 112.914703,1.344474 
	C113.000000,1.000000 113.500000,1.000000 113.750000,1.000001 
z"/>
<path fill="#1B3356" opacity="1.000000" stroke="none" 
	d="
M185.017059,51.444542 
	C185.148605,51.320312 185.280136,51.196087 186.081665,51.022007 
	C190.231277,50.861614 193.710907,50.751083 197.190521,50.640549 
	C198.250931,50.868237 199.311356,51.095924 200.753006,51.884262 
	C202.519379,52.962257 203.897888,53.905735 205.290710,53.927334 
	C213.896454,54.060780 222.505417,53.986664 231.549408,53.958702 
	C232.557693,53.825672 233.129898,53.715458 233.702087,53.605240 
	C240.468643,57.027500 243.830734,62.978916 245.164764,70.041306 
	C247.049194,80.017586 248.483261,90.078934 249.982880,100.932053 
	C250.666138,104.242737 251.476364,106.725296 252.286591,109.207855 
	C252.459579,110.221863 252.632568,111.235863 252.601196,112.922974 
	C253.084946,119.921394 253.517654,126.287422 254.518372,132.562881 
	C256.203979,143.133179 258.149200,153.665482 260.182129,164.175690 
	C261.415009,170.549713 263.018127,176.852142 264.454895,183.186737 
	C264.542877,183.597565 264.630829,184.008392 264.480774,185.028778 
	C264.253754,186.957016 264.124176,188.294495 264.297577,189.591461 
	C265.916351,201.698318 259.616394,209.666504 250.892776,212.508408 
	C248.172928,212.103378 245.527802,212.005310 242.882614,212.003952 
	C219.718704,211.992020 196.554703,211.970490 173.391022,212.043030 
	C171.294174,212.049591 169.199341,212.694839 167.069717,212.779053 
	C167.017044,212.337860 166.998199,212.161133 166.985931,211.559799 
	C166.337997,208.299454 165.446960,205.494675 165.070908,202.622452 
	C163.621750,191.553741 162.395966,180.455627 160.923172,169.390274 
	C160.720093,167.864380 159.596817,166.460953 158.928894,164.726868 
	C158.958374,163.656540 158.958511,162.860138 158.959198,161.643219 
	C156.971542,147.088867 155.039032,132.946808 152.950394,118.827835 
	C152.507507,115.833946 151.494659,112.924385 150.827805,109.627258 
	C151.445129,108.453941 152.067490,107.672455 152.494949,106.795929 
	C153.435638,104.867027 154.277893,102.890106 155.160324,100.932793 
	C153.069641,100.292343 150.978943,99.651901 148.917511,98.569321 
	C148.157227,92.489929 147.341385,86.856186 146.584137,81.214600 
	C145.367126,72.147598 144.188812,63.075409 143.463409,54.003262 
	C156.188385,53.998810 168.445511,54.081146 180.698044,53.881908 
	C182.150543,53.858288 183.578003,52.294434 185.017059,51.444542 
M163.333755,144.646301 
	C164.253464,146.728348 165.173157,148.810410 166.212646,151.492126 
	C166.516266,151.961533 166.819885,152.430923 167.100815,153.615295 
	C168.388260,155.436737 169.675720,157.258163 170.977631,159.806808 
	C172.888672,161.858688 174.442825,164.957825 176.781509,165.754791 
	C182.482895,167.697662 188.527420,169.463715 194.472778,169.599960 
	C199.297989,169.710526 204.179886,167.348480 209.609238,165.798035 
	C210.014648,165.668747 210.420059,165.539459 211.136871,166.017227 
	C214.432297,164.766052 217.746109,163.557831 220.983292,162.170715 
	C221.208328,162.074295 220.863815,160.648712 220.870361,159.078094 
	C220.930664,158.056992 220.990952,157.035873 221.611938,155.397675 
	C221.430664,147.600159 221.249374,139.802658 220.980789,131.340607 
	C220.985626,130.894226 220.990479,130.447830 221.326019,129.805817 
	C221.144867,129.589050 220.963699,129.372269 220.743912,129.171082 
	C220.743912,129.171082 220.716507,129.204147 220.746262,128.436935 
	C216.937454,127.430710 213.169617,125.867401 209.307678,125.583305 
	C205.816895,125.326500 202.227463,126.498100 198.673508,126.980850 
	C196.392639,127.290672 193.159515,125.962540 192.733643,129.672134 
	C192.262238,133.778503 189.860992,138.300385 194.694534,141.914749 
	C194.694534,141.914749 194.946060,142.159286 194.971680,142.844727 
	C196.777863,143.394653 198.584030,143.944580 201.372894,144.793732 
	C201.075104,146.032532 200.614059,147.950378 200.153030,149.868240 
	C196.890762,145.082809 193.823639,147.132462 189.534592,148.206406 
	C192.443192,148.904663 194.053894,149.291336 195.664612,149.678009 
	C195.563156,150.288406 195.461685,150.898804 195.360214,151.509201 
	C193.140564,151.120407 190.553528,151.331955 188.765564,150.237747 
	C181.437759,145.753250 180.471222,138.452408 181.014618,130.712036 
	C181.142990,128.883331 181.578506,127.076172 181.898560,125.099571 
	C183.929031,125.727409 185.207382,126.122688 186.485733,126.517967 
	C186.516434,124.597321 185.438446,123.591606 185.169571,122.402878 
	C184.867615,121.067871 184.730225,118.998840 185.500107,118.232170 
	C190.218750,113.533302 197.857590,114.285530 201.795410,119.395927 
	C203.746902,121.928535 206.143539,123.525391 209.726151,120.111382 
	C210.467316,120.031601 211.208496,119.951813 212.396881,120.449104 
	C214.606552,120.123856 216.881027,120.027855 219.012405,119.425537 
	C223.424118,118.178795 224.058105,116.202576 221.719986,112.174393 
	C220.744339,110.493492 219.907608,108.731949 219.552460,106.913475 
	C219.865128,106.619797 220.177780,106.326118 220.490448,106.032440 
	C220.290131,105.860481 220.089813,105.688522 219.889496,105.516556 
	C219.590622,106.008461 219.291748,106.500366 218.385284,106.709999 
	C215.040863,103.703339 212.195099,99.855858 206.509415,99.432777 
	C200.392380,98.677261 194.213211,97.015678 188.176376,97.429688 
	C182.521317,97.817513 176.334259,99.059868 172.234116,104.980644 
	C171.483032,105.647202 170.731964,106.313766 169.372437,107.302368 
	C164.692612,110.738953 161.820236,117.207596 163.180481,121.771561 
	C163.039291,122.197754 162.898087,122.623940 162.046555,123.232208 
	C161.384476,126.834587 157.830811,130.480301 162.562408,134.712448 
	C162.484344,135.482864 162.406296,136.253281 161.731873,137.291214 
	C162.099182,139.198151 162.466492,141.105072 163.233704,143.490417 
	C163.367584,143.649414 163.501465,143.808395 163.333755,144.646301 
z"/>
<path fill="#314565" opacity="1.000000" stroke="none" 
	d="
M142.994141,54.005417 
	C144.188812,63.075409 145.367126,72.147598 146.584137,81.214600 
	C147.341385,86.856186 148.157227,92.489929 148.496521,98.585510 
	C144.977310,98.928505 141.593887,97.919106 138.898956,98.867043 
	C131.096283,101.611649 126.641998,108.046051 123.112694,115.447571 
	C122.866150,115.933327 122.654152,116.150917 121.998138,116.230133 
	C119.980209,117.226578 118.346230,118.302864 115.947075,119.883156 
	C115.947075,114.390221 115.889046,109.367493 115.966446,104.346840 
	C116.022682,100.698975 114.686577,98.835487 110.706429,99.003754 
	C107.026802,99.159325 103.324982,98.789825 99.269234,98.637939 
	C99.256424,98.757538 99.136276,99.879807 99.010101,101.001923 
	C99.004082,101.001778 98.999611,101.014870 98.598633,101.086090 
	C97.800995,101.998924 97.061020,102.839317 97.058052,103.682320 
	C96.988747,123.323700 96.943504,142.965836 97.111549,162.605972 
	C97.123680,164.023117 98.746750,166.596359 99.707565,166.638168 
	C104.519020,166.847504 109.395317,166.635162 114.154465,165.932190 
	C114.952919,165.814240 116.142357,162.308258 115.697296,160.795486 
	C113.000854,151.630280 114.789001,144.236099 122.042618,139.716187 
	C126.378983,147.429291 130.672897,155.144562 135.059021,162.807068 
	C136.007919,164.464798 137.230087,167.221375 138.425766,167.275452 
	C145.319427,167.587326 152.614670,170.300980 158.899551,165.000824 
	C159.596817,166.460953 160.720093,167.864380 160.923172,169.390274 
	C162.395966,180.455627 163.621750,191.553741 165.070908,202.622452 
	C165.446960,205.494675 166.337997,208.299454 166.519623,211.565201 
	C136.886795,211.996567 107.726814,211.977783 78.567024,212.045944 
	C76.678566,212.050354 74.791664,212.724167 72.688461,213.106171 
	C72.472893,213.125763 72.042328,213.080658 71.964951,212.719772 
	C69.551582,211.951141 67.215584,211.543396 64.580002,210.980698 
	C61.570335,208.531006 58.860249,206.236267 56.150162,203.941528 
	C56.150162,203.941528 55.891018,203.657394 55.888947,203.034241 
	C55.558739,199.820312 54.946022,197.227798 54.961765,194.639114 
	C54.994450,189.264999 55.360596,183.892944 55.589661,178.520035 
	C55.490829,178.194748 55.472214,177.864929 55.929298,177.062866 
	C57.303856,171.265366 58.432396,165.957367 59.213806,160.598755 
	C59.817787,156.456909 59.986824,152.251633 60.349220,148.074554 
	C60.389355,147.638779 60.429493,147.202988 60.884083,146.264511 
	C61.961731,140.860062 62.624928,135.958328 63.288124,131.056580 
	C63.387955,129.687286 63.487778,128.318008 63.960724,126.388359 
	C64.439621,125.079170 64.545395,124.330330 64.651169,123.581497 
	C66.280807,113.115448 67.853386,102.640091 69.559029,92.186440 
	C70.812660,84.503090 72.181641,76.837212 73.604752,69.183167 
	C75.645691,58.206188 84.153328,51.083160 95.240410,51.007633 
	C102.213310,50.960133 109.186707,50.985863 116.643005,50.941158 
	C118.132019,50.909142 119.137894,50.914703 120.974190,50.931030 
	C125.598457,50.834206 129.392303,50.726616 133.186157,50.619026 
	C134.300812,50.694061 135.415482,50.769096 136.951233,50.766239 
	C151.299698,50.800766 165.227081,50.913185 179.485901,51.555969 
	C178.246628,52.378326 176.678055,52.908630 175.104797,52.922920 
	C166.122452,53.004509 157.138397,52.909336 148.156464,53.010738 
	C146.432159,53.030205 144.714737,53.658169 142.994141,54.005417 
z"/>
<path fill="#677487" opacity="1.000000" stroke="none" 
	d="
M72.042328,213.080658 
	C72.042328,213.080658 72.472893,213.125763 73.148178,213.127609 
	C90.777405,213.384308 107.730659,213.758240 124.685509,213.857178 
	C138.824936,213.939697 152.966248,213.699814 167.557571,213.703705 
	C192.214676,213.835495 216.421051,213.907730 240.627121,213.850403 
	C244.074661,213.842255 247.520721,213.205841 250.967468,212.860214 
	C259.616394,209.666504 265.916351,201.698318 264.297577,189.591461 
	C264.124176,188.294495 264.253754,186.957016 264.473694,185.345581 
	C270.670441,200.405792 260.305847,215.343262 243.329819,215.457535 
	C219.354752,215.618912 195.377777,215.498505 171.401611,215.491684 
	C139.433456,215.482590 107.465034,215.534943 75.497337,215.407593 
	C67.217888,215.374603 60.209873,212.494598 56.134827,204.293213 
	C58.860249,206.236267 61.570335,208.531006 64.852249,211.228333 
	C67.630165,212.114182 69.836243,212.597427 72.042328,213.080658 
z"/>
<path fill="#677487" opacity="1.000000" stroke="none" 
	d="
M264.623718,182.775787 
	C263.018127,176.852142 261.415009,170.549713 260.182129,164.175690 
	C258.149200,153.665482 256.203979,143.133179 254.518372,132.562881 
	C253.517654,126.287422 253.084946,119.921394 252.628174,113.309013 
	C254.159134,119.463158 255.609665,125.878281 256.728302,132.350784 
	C259.407501,147.852966 261.936707,163.381119 264.504059,178.902512 
	C264.692413,180.041367 264.700562,181.210037 264.623718,182.775787 
z"/>
<path fill="#0D2443" opacity="1.000000" stroke="none" 
	d="
M231.113312,53.981522 
	C222.505417,53.986664 213.896454,54.060780 205.290710,53.927334 
	C203.897888,53.905735 202.519379,52.962257 201.104095,52.090584 
	C201.446075,51.605335 201.818207,51.474411 202.444519,51.193138 
	C210.156372,51.085400 217.614059,51.128006 225.555481,51.577095 
	C226.699615,51.960102 227.360046,51.936634 228.020462,51.913166 
	C228.759232,51.985008 229.498016,52.056854 230.566513,52.541477 
	C230.968597,53.296677 231.040955,53.639099 231.113312,53.981522 
z"/>
<path fill="#677487" opacity="1.000000" stroke="none" 
	d="
M60.064919,148.334656 
	C59.986824,152.251633 59.817787,156.456909 59.213806,160.598755 
	C58.432396,165.957367 57.303856,171.265366 56.004803,176.825027 
	C56.361149,171.266251 56.946716,165.465012 57.746338,159.693451 
	C58.262009,155.971375 59.091671,152.292801 60.064919,148.334656 
z"/>
<path fill="#677487" opacity="1.000000" stroke="none" 
	d="
M55.313263,178.769684 
	C55.360596,183.892944 54.994450,189.264999 54.961765,194.639114 
	C54.946022,197.227798 55.558739,199.820312 55.846077,202.846802 
	C54.735928,199.600616 52.864216,195.931580 52.805061,192.233536 
	C52.734810,187.841827 54.223656,183.425171 55.313263,178.769684 
z"/>
<path fill="#677487" opacity="1.000000" stroke="none" 
	d="
M63.033356,131.348114 
	C62.624928,135.958328 61.961731,140.860062 61.010895,145.959564 
	C61.408363,141.318100 62.093475,136.478867 63.033356,131.348114 
z"/>
<path fill="#677487" opacity="1.000000" stroke="none" 
	d="
M252.402069,108.832458 
	C251.476364,106.725296 250.666138,104.242737 249.955414,101.351067 
	C250.875793,103.446991 251.696655,105.952019 252.402069,108.832458 
z"/>
<path fill="#314565" opacity="1.000000" stroke="none" 
	d="
M231.549408,53.958702 
	C231.040955,53.639099 230.968597,53.296677 230.908112,52.692005 
	C231.715042,52.650757 232.510101,52.871758 233.503632,53.348999 
	C233.129898,53.715458 232.557693,53.825672 231.549408,53.958702 
z"/>
<path fill="#677487" opacity="1.000000" stroke="none" 
	d="
M64.389442,123.743423 
	C64.545395,124.330330 64.439621,125.079170 64.079849,125.994064 
	C63.926476,125.408539 64.027092,124.656937 64.389442,123.743423 
z"/>
<path fill="#314565" opacity="1.000000" stroke="none" 
	d="
M227.920197,51.676964 
	C227.360046,51.936634 226.699615,51.960102 225.982025,51.662575 
	C226.556549,51.374645 227.188248,51.407703 227.920197,51.676964 
z"/>
<path fill="#0F2645" opacity="1.000000" stroke="none" 
	d="
M143.463394,54.003262 
	C144.714737,53.658169 146.432159,53.030205 148.156464,53.010738 
	C157.138397,52.909336 166.122452,53.004509 175.104797,52.922920 
	C176.678055,52.908630 178.246628,52.378326 179.933762,51.714119 
	C180.429840,51.193218 180.809525,51.044529 181.478851,50.798653 
	C182.593155,50.838501 183.417831,50.975544 184.629776,51.278564 
	C183.578003,52.294434 182.150543,53.858288 180.698044,53.881908 
	C168.445511,54.081146 156.188385,53.998810 143.463394,54.003262 
z"/>
<path fill="#EB6131" opacity="1.000000" stroke="none" 
	d="
M197.227997,50.328732 
	C193.710907,50.751083 190.231277,50.861614 186.285431,50.842731 
	C186.215912,48.783932 186.205627,46.643791 187.077362,44.960384 
	C191.709106,36.016010 191.238693,26.796669 187.579361,18.012074 
	C185.794342,13.726988 181.635666,10.433673 178.569580,6.676640 
	C177.984360,5.959531 177.483948,5.173206 176.916534,4.379861 
	C187.095261,-0.807277 197.209442,3.826637 200.646545,15.647012 
	C203.251617,24.605938 204.654449,33.897221 201.414673,43.077759 
	C200.535629,45.568680 198.675369,47.713333 197.227997,50.328732 
M185.729141,5.006570 
	C184.916245,5.741179 184.103348,6.475787 183.290451,7.210397 
	C184.708633,7.796633 186.092819,8.667650 187.560074,8.842812 
	C188.241379,8.924147 189.084198,7.652570 189.853806,6.994308 
	C188.751175,6.329569 187.648529,5.664829 185.729141,5.006570 
z"/>
<path fill="#EA6131" opacity="1.000000" stroke="none" 
	d="
M133.132782,50.245575 
	C129.392303,50.726616 125.598457,50.834206 121.341461,50.818310 
	C114.460472,38.172653 113.741417,25.614994 120.320618,12.850848 
	C122.126411,9.347473 122.722946,4.784568 127.355812,3.906525 
	C131.647003,3.093238 136.093719,3.100424 140.471939,2.746308 
	C140.676361,3.170870 140.880783,3.595432 141.085190,4.019995 
	C138.742676,7.150507 136.283310,10.201175 134.079742,13.426618 
	C127.667152,22.813017 127.395203,32.845745 131.136368,43.274899 
	C131.909119,45.429104 132.438095,47.670769 133.132782,50.245575 
z"/>
<path fill="#F7B817" opacity="1.000000" stroke="none" 
	d="
M167.123505,152.900330 
	C166.819885,152.430923 166.516266,151.961533 166.232864,151.007202 
	C166.253082,150.522278 166.382935,150.140198 166.645370,150.047791 
	C167.482727,146.271103 169.139877,142.167603 163.292114,140.533020 
	C162.892273,139.101471 162.610260,138.062576 162.328247,137.023697 
	C162.406296,136.253281 162.484344,135.482864 162.591782,133.991364 
	C162.734421,131.867615 162.847687,130.464966 163.217377,129.061768 
	C163.642685,129.035248 163.811569,129.009247 164.260376,128.719849 
	C164.683868,126.629814 164.827484,124.803169 165.025650,122.640617 
	C165.705994,120.853493 166.331772,119.402267 167.242126,117.761757 
	C168.038055,116.064209 168.549408,114.555939 169.263367,112.907272 
	C169.726944,112.533813 169.865677,112.242516 169.936234,111.577667 
	C169.990295,110.838287 169.990265,110.414200 169.995117,109.995056 
	C170.000000,110.000000 169.988831,109.991081 170.334747,109.987427 
	C172.385925,108.179214 174.091202,106.374672 175.943634,104.407501 
	C176.325150,104.055481 176.592056,103.943756 177.170135,103.959625 
	C177.635986,104.006371 177.823212,104.003181 178.419006,104.000671 
	C184.888382,103.013878 190.949188,102.026398 196.997528,101.409744 
	C193.339462,104.028648 189.693893,106.276733 186.089890,108.499168 
	C186.641327,108.790657 187.834702,109.421478 189.025330,110.379379 
	C189.019745,111.143311 189.016891,111.580170 188.790115,112.176178 
	C185.783936,114.129395 182.130035,115.314468 180.375122,117.826286 
	C173.880051,127.122833 176.538086,137.457275 179.420258,146.970764 
	C181.989838,155.452393 197.438110,158.766159 204.712982,153.414261 
	C208.837433,150.380035 208.843918,144.372986 204.828751,142.304459 
	C204.932510,142.297455 204.728119,142.287216 204.595917,141.932541 
	C203.198639,141.299591 201.944992,140.942123 200.666412,140.757339 
	C196.119598,140.100220 195.487259,137.106308 195.911621,133.245605 
	C196.359833,129.167953 199.378448,130.116531 201.878372,129.952850 
	C206.247986,129.666763 210.617310,129.376160 215.239410,129.041977 
	C216.316467,128.999756 217.140869,129.002991 217.965790,129.245026 
	C217.966309,129.483826 218.009415,129.959457 218.004120,130.432037 
	C217.998978,138.710007 217.963608,146.515671 218.025345,154.320587 
	C218.039917,156.163361 218.381256,158.003525 218.640259,160.028534 
	C218.708252,160.212173 218.968094,160.505219 218.689636,160.687744 
	C217.791702,161.092407 217.172256,161.314545 216.161224,161.405365 
	C209.568771,162.850128 203.447556,165.158966 197.149765,165.843597 
	C185.490250,167.111084 176.581268,161.240784 168.974655,152.766190 
	C168.837555,152.259460 168.714371,151.992188 168.591202,151.724930 
	C168.331360,152.049377 168.071503,152.373825 167.628799,152.711945 
	C167.445953,152.725647 167.123505,152.900330 167.123505,152.900330 
z"/>
<path fill="#2D4363" opacity="1.000000" stroke="none" 
	d="
M150.744431,109.975967 
	C151.494659,112.924385 152.507507,115.833946 152.950394,118.827835 
	C155.039032,132.946808 156.971542,147.088867 158.650772,161.488342 
	C151.248474,151.165283 144.084869,140.622513 137.108948,129.957001 
	C135.259415,127.129265 136.110931,124.393646 138.449265,121.928108 
	C141.126251,119.105515 143.558105,116.050430 146.408081,113.023781 
	C148.061264,111.959457 149.402847,110.967712 150.744431,109.975967 
z"/>
<path fill="#605F48" opacity="1.000000" stroke="none" 
	d="
M146.096466,113.096359 
	C143.558105,116.050430 141.126251,119.105515 138.449265,121.928108 
	C136.110931,124.393646 135.259415,127.129265 137.108948,129.957001 
	C144.084869,140.622513 151.248474,151.165283 158.650238,161.908875 
	C158.958511,162.860138 158.958374,163.656540 158.928894,164.726868 
	C152.614670,170.300980 145.319427,167.587326 138.425766,167.275452 
	C137.230087,167.221375 136.007919,164.464798 135.059021,162.807068 
	C130.672897,155.144562 126.378983,147.429291 122.042618,139.716187 
	C114.789001,144.236099 113.000854,151.630280 115.697296,160.795486 
	C116.142357,162.308258 114.952919,165.814240 114.154465,165.932190 
	C109.395317,166.635162 104.519020,166.847504 99.707565,166.638168 
	C98.746750,166.596359 97.123680,164.023117 97.111549,162.605972 
	C96.943504,142.965836 96.988747,123.323700 97.058052,103.682320 
	C97.061020,102.839317 97.800995,101.998924 98.577209,101.553329 
	C98.963020,119.772247 98.988136,137.595169 98.968407,155.418045 
	C98.956665,166.020996 98.936050,166.130386 109.732925,165.036148 
	C111.091385,164.898483 113.150551,163.018845 113.348877,161.712982 
	C113.943802,157.795868 114.157593,153.729675 113.809937,149.784241 
	C113.398026,145.109818 115.247498,141.920914 118.563797,138.954636 
	C120.974770,136.798157 122.596123,137.111542 124.173874,139.617767 
	C128.159576,145.948990 132.345200,152.168427 136.029785,158.671173 
	C139.737244,165.214264 148.975830,167.773529 156.510254,163.470490 
	C155.103165,161.250031 153.741302,159.016418 152.297440,156.837143 
	C146.327820,147.827087 140.247742,138.888062 134.437943,129.776489 
	C133.539764,128.367874 132.946335,125.429626 133.737381,124.507843 
	C137.376648,120.267090 141.556839,116.490524 145.681396,112.684631 
	C145.819809,112.821823 146.096466,113.096359 146.096466,113.096359 
z"/>
<path fill="#313D3D" opacity="1.000000" stroke="none" 
	d="
M209.039551,120.416260 
	C206.143539,123.525391 203.746902,121.928535 201.795410,119.395927 
	C197.857590,114.285530 190.218750,113.533302 185.500107,118.232170 
	C184.730225,118.998840 184.867615,121.067871 185.169571,122.402878 
	C185.438446,123.591606 186.516434,124.597321 186.485733,126.517967 
	C185.207382,126.122688 183.929031,125.727409 181.898560,125.099571 
	C181.578506,127.076172 181.142990,128.883331 181.014618,130.712036 
	C180.471222,138.452408 181.437759,145.753250 188.765564,150.237747 
	C190.553528,151.331955 193.140564,151.120407 195.360214,151.509201 
	C195.461685,150.898804 195.563156,150.288406 195.664612,149.678009 
	C194.053894,149.291336 192.443192,148.904663 189.534592,148.206406 
	C193.823639,147.132462 196.890762,145.082809 200.153030,149.868240 
	C200.614059,147.950378 201.075104,146.032532 201.372894,144.793732 
	C198.584030,143.944580 196.777863,143.394653 195.413391,142.475967 
	C198.812759,142.167221 201.770447,142.227219 204.728119,142.287216 
	C204.728119,142.287216 204.932510,142.297455 204.866852,142.721924 
	C204.148392,145.977478 204.342789,150.535324 202.697113,151.342728 
	C195.304413,154.969788 183.310257,154.852921 180.468628,142.708267 
	C179.294281,137.689407 179.582962,132.241745 179.776520,127.010216 
	C180.045502,119.741074 184.262909,115.219566 191.429840,112.904457 
	C193.608994,112.849869 195.350922,112.772575 197.362854,112.831375 
	C198.029694,113.035339 198.426529,113.103218 198.991272,113.446396 
	C200.117569,114.153847 201.075928,114.586006 202.143158,115.111160 
	C202.252014,115.204163 202.527725,115.281494 202.586609,115.605560 
	C203.309631,116.699234 203.973785,117.468842 204.645874,118.259537 
	C204.653809,118.280617 204.675995,118.319710 204.761383,118.692444 
	C206.244370,119.515533 207.641968,119.965897 209.039551,120.416260 
z"/>
<path fill="#283A57" opacity="1.000000" stroke="none" 
	d="
M167.106735,213.602722 
	C152.966248,213.699814 138.824936,213.939697 124.685509,213.857178 
	C107.730659,213.758240 90.777405,213.384308 73.363754,213.108032 
	C74.791664,212.724167 76.678566,212.050354 78.567024,212.045944 
	C107.726814,211.977783 136.886795,211.996567 166.513031,211.989792 
	C166.998199,212.161133 167.017044,212.337860 167.065765,212.918701 
	C167.095673,213.322800 167.106735,213.602722 167.106735,213.602722 
z"/>
<path fill="#102745" opacity="1.000000" stroke="none" 
	d="
M167.557571,213.703705 
	C167.106735,213.602722 167.095673,213.322800 167.099609,213.183151 
	C169.199341,212.694839 171.294174,212.049591 173.391022,212.043030 
	C196.554703,211.970490 219.718704,211.992020 242.882614,212.003952 
	C245.527802,212.005310 248.172928,212.103378 250.892776,212.508408 
	C247.520721,213.205841 244.074661,213.842255 240.627121,213.850403 
	C216.421051,213.907730 192.214676,213.835495 167.557571,213.703705 
z"/>
<path fill="#605F48" opacity="1.000000" stroke="none" 
	d="
M150.827805,109.627258 
	C149.402847,110.967712 148.061264,111.959457 146.408081,113.023781 
	C146.096466,113.096359 145.819809,112.821823 145.805908,112.373764 
	C148.444351,108.742996 151.096695,105.560287 153.749054,102.377586 
	C153.601578,101.885208 153.454102,101.392838 153.306625,100.900459 
	C149.126740,100.900459 144.934616,101.096672 140.770935,100.836853 
	C137.580719,100.637787 135.751770,101.977829 133.781906,104.364288 
	C130.574081,108.250534 126.763527,111.639259 123.207321,115.237946 
	C126.641998,108.046051 131.096283,101.611649 138.898956,98.867043 
	C141.593887,97.919106 144.977310,98.928505 148.467255,99.027634 
	C150.978943,99.651901 153.069641,100.292343 155.160324,100.932793 
	C154.277893,102.890106 153.435638,104.867027 152.494949,106.795929 
	C152.067490,107.672455 151.445129,108.453941 150.827805,109.627258 
z"/>
<path fill="#B49A3C" opacity="1.000000" stroke="none" 
	d="
M167.112152,153.257812 
	C167.123505,152.900330 167.445953,152.725647 167.915344,152.823456 
	C168.586044,152.949387 168.787323,152.977524 168.988586,153.005661 
	C176.581268,161.240784 185.490250,167.111084 197.149765,165.843597 
	C203.447556,165.158966 209.568771,162.850128 215.991821,161.682526 
	C214.417801,163.197388 212.621643,164.303772 210.825470,165.410172 
	C210.420059,165.539459 210.014648,165.668747 208.894836,165.889679 
	C194.955902,168.095886 181.980118,168.869232 170.963165,159.079605 
	C169.675720,157.258163 168.388260,155.436737 167.112152,153.257812 
z"/>
<path fill="#313D3D" opacity="1.000000" stroke="none" 
	d="
M217.965271,129.006241 
	C217.140869,129.002991 216.316467,128.999756 214.782242,128.940186 
	C211.243713,128.866425 208.414917,128.825989 205.586304,128.835510 
	C192.869446,128.878357 192.869461,128.883484 194.367752,141.787125 
	C189.860992,138.300385 192.262238,133.778503 192.733643,129.672134 
	C193.159515,125.962540 196.392639,127.290672 198.673508,126.980850 
	C202.227463,126.498100 205.816895,125.326500 209.307678,125.583305 
	C213.169617,125.867401 216.937454,127.430710 220.388702,128.767609 
	C219.342514,129.067596 218.653900,129.036926 217.965271,129.006241 
z"/>
<path fill="#313D3D" opacity="1.000000" stroke="none" 
	d="
M170.970398,159.443207 
	C181.980118,168.869232 194.955902,168.095886 208.608521,166.032196 
	C204.179886,167.348480 199.297989,169.710526 194.472778,169.599960 
	C188.527420,169.463715 182.482895,167.697662 176.781509,165.754791 
	C174.442825,164.957825 172.888672,161.858688 170.970398,159.443207 
z"/>
<path fill="#313D3D" opacity="1.000000" stroke="none" 
	d="
M207.005249,99.960823 
	C212.195099,99.855858 215.040863,103.703339 218.692642,106.854996 
	C219.000000,107.000000 219.007721,107.007072 219.007721,107.007072 
	C219.907608,108.731949 220.744339,110.493492 221.719986,112.174393 
	C224.058105,116.202576 223.424118,118.178795 219.012405,119.425537 
	C216.881027,120.027855 214.606552,120.123856 212.441925,119.919296 
	C215.157211,118.109863 217.827454,116.830231 220.497681,115.550598 
	C218.897751,112.793503 217.441910,109.936325 215.629440,107.326874 
	C214.867691,106.230186 213.351761,105.657356 212.154114,104.847031 
	C212.129517,104.847679 212.081253,104.850075 211.970062,104.561958 
	C211.303543,104.047050 210.748215,103.820267 210.028351,103.511566 
	C209.863815,103.429649 209.503571,103.502914 209.493256,103.489548 
	C209.482956,103.476181 209.465057,103.449432 209.372925,103.159760 
	C208.360977,102.129913 207.441162,101.389740 206.639984,100.475746 
	C206.758636,100.301918 207.005249,99.960823 207.005249,99.960823 
z"/>
<path fill="#27343B" opacity="1.000000" stroke="none" 
	d="
M176.891479,103.909698 
	C176.592056,103.943756 176.325150,104.055481 175.608704,104.451706 
	C174.484543,104.853432 173.842422,105.048325 173.129639,105.160156 
	C173.058975,105.077095 172.915558,104.912758 172.915558,104.912758 
	C176.334259,99.059868 182.521317,97.817513 188.176376,97.429688 
	C194.213211,97.015678 200.392380,98.677261 206.757324,99.696800 
	C207.005249,99.960823 206.758636,100.301918 206.237808,100.421082 
	C196.200836,98.276169 186.851868,97.912132 177.719727,103.021408 
	C177.269516,103.344612 177.080490,103.627159 176.891479,103.909698 
z"/>
<path fill="#B49A3C" opacity="1.000000" stroke="none" 
	d="
M217.965790,129.245026 
	C218.653900,129.036926 219.342514,129.067596 220.373825,129.151215 
	C220.716507,129.204147 220.743912,129.171082 220.774475,129.384918 
	C220.805023,129.598740 220.995331,130.001450 220.995331,130.001450 
	C220.990479,130.447830 220.985626,130.894226 220.922455,132.132080 
	C220.926483,140.620636 220.988876,148.317703 221.051239,156.014771 
	C220.990952,157.035873 220.930664,158.056992 220.599365,159.566376 
	C219.874939,160.204849 219.421524,160.355026 218.968094,160.505219 
	C218.968094,160.505219 218.708252,160.212173 218.798370,159.598541 
	C218.934921,151.520172 219.060440,144.054596 218.979095,136.591248 
	C218.954971,134.377396 218.348846,132.169876 218.009399,129.959457 
	C218.009415,129.959457 217.966309,129.483826 217.965790,129.245026 
z"/>
<path fill="#B49A3C" opacity="1.000000" stroke="none" 
	d="
M194.531143,141.850937 
	C192.869461,128.883484 192.869446,128.878357 205.586304,128.835510 
	C208.414917,128.825989 211.243713,128.866425 214.529587,128.985657 
	C210.617310,129.376160 206.247986,129.666763 201.878372,129.952850 
	C199.378448,130.116531 196.359833,129.167953 195.911621,133.245605 
	C195.487259,137.106308 196.119598,140.100220 200.666412,140.757339 
	C201.944992,140.942123 203.198639,141.299591 204.595917,141.932541 
	C201.770447,142.227219 198.812759,142.167221 195.400574,142.133240 
	C194.946060,142.159286 194.694534,141.914749 194.531143,141.850937 
z"/>
<path fill="#B49A3C" opacity="1.000000" stroke="none" 
	d="
M212.178696,104.846375 
	C213.351761,105.657356 214.867691,106.230186 215.629440,107.326874 
	C217.441910,109.936325 218.897751,112.793503 220.497681,115.550598 
	C217.827454,116.830231 215.157211,118.109863 212.218323,119.630760 
	C211.208496,119.951813 210.467316,120.031601 209.382843,120.263824 
	C207.641968,119.965897 206.244370,119.515533 205.141205,118.704559 
	C209.237045,117.470833 213.038483,116.597717 216.839905,115.724609 
	C215.545258,112.829964 214.250595,109.935326 212.876114,106.810043 
	C212.617569,106.291573 212.368927,106.089996 212.045349,105.688385 
	C212.086472,105.216850 212.132584,105.031609 212.178696,104.846375 
z"/>
<path fill="#27343B" opacity="1.000000" stroke="none" 
	d="
M163.246033,121.099136 
	C161.820236,117.207596 164.692612,110.738953 169.851715,107.309708 
	C170.330978,107.317047 170.681442,107.653404 170.559769,107.935074 
	C170.288345,108.808197 170.138596,109.399635 169.988831,109.991081 
	C169.988831,109.991081 170.000000,110.000000 169.712097,110.068161 
	C169.153152,110.633858 168.882095,111.131393 168.597015,111.660362 
	C168.582993,111.691795 168.569901,111.759377 168.353348,111.871094 
	C167.892197,112.221123 167.754044,112.510330 167.546356,113.013054 
	C167.179794,113.439415 167.051422,113.730568 166.723633,114.256577 
	C165.390015,116.675713 164.318024,118.887421 163.246033,121.099136 
z"/>
<path fill="#313D3D" opacity="1.000000" stroke="none" 
	d="
M218.689636,160.687744 
	C219.421524,160.355026 219.874939,160.204849 220.556259,159.947952 
	C220.863815,160.648712 221.208328,162.074295 220.983292,162.170715 
	C217.746109,163.557831 214.432297,164.766052 210.981171,165.713699 
	C212.621643,164.303772 214.417801,163.197388 216.383392,161.813828 
	C217.172256,161.314545 217.791702,161.092407 218.689636,160.687744 
z"/>
<path fill="#313D3D" opacity="1.000000" stroke="none" 
	d="
M221.331604,155.706223 
	C220.988876,148.317703 220.926483,140.620636 220.966095,132.464355 
	C221.249374,139.802658 221.430664,147.600159 221.331604,155.706223 
z"/>
<path fill="#27343B" opacity="1.000000" stroke="none" 
	d="
M162.960953,129.062302 
	C162.847687,130.464966 162.734421,131.867615 162.414581,133.638733 
	C157.830811,130.480301 161.384476,126.834587 162.619675,123.128540 
	C163.192795,123.024864 163.620316,122.941895 163.434540,123.291763 
	C163.192856,124.423409 163.136963,125.205177 162.932465,126.234673 
	C162.842896,127.342361 162.901917,128.202332 162.960953,129.062302 
z"/>
<path fill="#D5AB30" opacity="1.000000" stroke="none" 
	d="
M163.409912,140.925690 
	C169.139877,142.167603 167.482727,146.271103 166.524292,149.684448 
	C165.305634,147.598145 164.470490,145.782745 163.635345,143.967361 
	C163.501465,143.808395 163.367584,143.649414 163.130890,142.901489 
	C163.155365,141.850281 163.282639,141.387985 163.409912,140.925690 
z"/>
<path fill="#B49A3C" opacity="1.000000" stroke="none" 
	d="
M163.213257,121.435349 
	C164.318024,118.887421 165.390015,116.675713 166.743011,114.645828 
	C167.001877,115.868790 166.979706,116.909912 166.957535,117.951042 
	C166.331772,119.402267 165.705994,120.853493 164.798981,122.653206 
	C164.214233,123.047386 163.915085,123.027451 163.620316,122.941895 
	C163.620316,122.941895 163.192795,123.024864 162.974838,123.037491 
	C162.898087,122.623940 163.039291,122.197754 163.213257,121.435349 
z"/>
<path fill="#B49A3C" opacity="1.000000" stroke="none" 
	d="
M163.484558,144.306824 
	C164.470490,145.782745 165.305634,147.598145 166.261856,149.776855 
	C166.382935,150.140198 166.253082,150.522278 166.172974,150.707367 
	C165.173157,148.810410 164.253464,146.728348 163.484558,144.306824 
z"/>
<path fill="#27343B" opacity="1.000000" stroke="none" 
	d="
M163.292114,140.533020 
	C163.282639,141.387985 163.155365,141.850281 162.930939,142.662292 
	C162.466492,141.105072 162.099182,139.198151 162.030060,137.157455 
	C162.610260,138.062576 162.892273,139.101471 163.292114,140.533020 
z"/>
<path fill="#27343B" opacity="1.000000" stroke="none" 
	d="
M170.155930,107.148682 
	C170.731964,106.313766 171.483032,105.647202 172.574829,104.946701 
	C172.915558,104.912758 173.058975,105.077095 172.979370,105.414040 
	C172.160324,106.385124 171.420883,107.019264 170.681442,107.653397 
	C170.681442,107.653404 170.330978,107.317047 170.155930,107.148682 
z"/>
<path fill="#313D3D" opacity="1.000000" stroke="none" 
	d="
M218.996429,106.996132 
	C219.291748,106.500366 219.590622,106.008461 219.889496,105.516563 
	C220.089813,105.688522 220.290131,105.860481 220.490448,106.032440 
	C220.177780,106.326118 219.865128,106.619797 219.280090,106.960274 
	C219.007721,107.007072 219.000000,107.000000 218.996429,106.996132 
z"/>
<path fill="#313D3D" opacity="1.000000" stroke="none" 
	d="
M221.160675,129.903625 
	C220.995331,130.001450 220.805023,129.598740 220.793793,129.377121 
	C220.963699,129.372269 221.144867,129.589050 221.160675,129.903625 
z"/>
<path fill="#ECBC34" opacity="1.000000" stroke="none" 
	d="
M123.112694,115.447571 
	C126.763527,111.639259 130.574081,108.250534 133.781906,104.364288 
	C135.751770,101.977829 137.580719,100.637787 140.770935,100.836853 
	C144.934616,101.096672 149.126740,100.900459 153.306625,100.900459 
	C153.454102,101.392838 153.601578,101.885208 153.749054,102.377586 
	C151.096695,105.560287 148.444351,108.742996 145.667496,112.236572 
	C141.556839,116.490524 137.376648,120.267090 133.737381,124.507843 
	C132.946335,125.429626 133.539764,128.367874 134.437943,129.776489 
	C140.247742,138.888062 146.327820,147.827087 152.297440,156.837143 
	C153.741302,159.016418 155.103165,161.250031 156.510254,163.470490 
	C148.975830,167.773529 139.737244,165.214264 136.029785,158.671173 
	C132.345200,152.168427 128.159576,145.948990 124.173874,139.617767 
	C122.596123,137.111542 120.974770,136.798157 118.563797,138.954636 
	C115.247498,141.920914 113.398026,145.109818 113.809937,149.784241 
	C114.157593,153.729675 113.943802,157.795868 113.348877,161.712982 
	C113.150551,163.018845 111.091385,164.898483 109.732925,165.036148 
	C98.936050,166.130386 98.956665,166.020996 98.968407,155.418045 
	C98.988136,137.595169 98.963020,119.772247 98.978195,101.482101 
	C98.999611,101.014870 99.004082,101.001778 99.473572,101.019234 
	C103.074791,100.993141 106.211555,101.044846 109.336868,100.879807 
	C112.601364,100.707405 114.251831,101.733490 113.978577,105.372864 
	C113.633789,109.965065 113.608154,114.587646 113.628204,119.196327 
	C113.633224,120.349434 114.206627,122.388397 114.751854,122.470390 
	C115.978668,122.654877 117.695053,122.234543 118.588112,121.395844 
	C120.106071,119.970276 121.142998,118.032501 122.382080,116.309982 
	C122.654152,116.150917 122.866150,115.933327 123.112694,115.447571 
z"/>
<path fill="#605F48" opacity="1.000000" stroke="none" 
	d="
M121.998138,116.230133 
	C121.142998,118.032501 120.106071,119.970276 118.588112,121.395844 
	C117.695053,122.234543 115.978668,122.654877 114.751854,122.470390 
	C114.206627,122.388397 113.633224,120.349434 113.628204,119.196327 
	C113.608154,114.587646 113.633789,109.965065 113.978577,105.372864 
	C114.251831,101.733490 112.601364,100.707405 109.336868,100.879807 
	C106.211555,101.044846 103.074791,100.993141 99.479591,101.019379 
	C99.136276,99.879807 99.256424,98.757538 99.269234,98.637939 
	C103.324982,98.789825 107.026802,99.159325 110.706429,99.003754 
	C114.686577,98.835487 116.022682,100.698975 115.966446,104.346840 
	C115.889046,109.367493 115.947075,114.390221 115.947075,119.883156 
	C118.346230,118.302864 119.980209,117.226578 121.998138,116.230133 
z"/>
<path fill="#283A57" opacity="1.000000" stroke="none" 
	d="
M71.964951,212.719772 
	C69.836243,212.597427 67.630165,212.114182 65.151833,211.383301 
	C67.215584,211.543396 69.551582,211.951141 71.964951,212.719772 
z"/>
<path fill="#E46723" opacity="1.000000" stroke="none" 
	d="
M186.137512,5.003330 
	C187.648529,5.664829 188.751175,6.329569 189.853806,6.994306 
	C189.084198,7.652570 188.241379,8.924147 187.560074,8.842812 
	C186.092819,8.667650 184.708633,7.796633 183.290451,7.210396 
	C184.103348,6.475787 184.916245,5.741179 186.137512,5.003330 
z"/>
<path fill="#B49A3C" opacity="1.000000" stroke="none" 
	d="
M190.992630,112.881744 
	C184.262909,115.219566 180.045502,119.741074 179.776520,127.010216 
	C179.582962,132.241745 179.294281,137.689407 180.468628,142.708267 
	C183.310257,154.852921 195.304413,154.969788 202.697113,151.342728 
	C204.342789,150.535324 204.148392,145.977478 204.763092,142.728943 
	C208.843918,144.372986 208.837433,150.380035 204.712982,153.414261 
	C197.438110,158.766159 181.989838,155.452393 179.420258,146.970764 
	C176.538086,137.457275 173.880051,127.122833 180.375122,117.826286 
	C182.130035,115.314468 185.783936,114.129395 189.073959,112.199043 
	C190.052032,112.335747 190.522324,112.608749 190.992630,112.881744 
z"/>
<path fill="#D5AB30" opacity="1.000000" stroke="none" 
	d="
M177.980927,102.980751 
	C186.851868,97.912132 196.200836,98.276169 206.119171,100.594910 
	C207.441162,101.389740 208.360977,102.129913 208.946655,103.306732 
	C207.432144,103.798653 206.251755,103.853928 204.874146,103.601044 
	C202.121277,102.541565 199.565643,101.790245 197.009995,101.038925 
	C190.949188,102.026398 184.888382,103.013878 178.417572,103.745697 
	C177.998688,103.320282 177.989807,103.150513 177.980927,102.980751 
z"/>
<path fill="#F4BA10" opacity="1.000000" stroke="none" 
	d="
M196.997528,101.409744 
	C199.565643,101.790245 202.121277,102.541565 204.608856,103.891541 
	C203.582245,104.662346 202.517075,104.623596 201.684326,105.044594 
	C198.705505,106.550545 194.324677,105.656418 192.601196,110.032608 
	C191.145142,110.042488 190.086609,110.047394 189.028076,110.052292 
	C187.834702,109.421478 186.641327,108.790657 186.089890,108.499168 
	C189.693893,106.276733 193.339462,104.028648 196.997528,101.409744 
z"/>
<path fill="#F0B82A" opacity="1.000000" stroke="none" 
	d="
M218.004120,130.432037 
	C218.348846,132.169876 218.954971,134.377396 218.979095,136.591248 
	C219.060440,144.054596 218.934921,151.520172 218.730377,159.414902 
	C218.381256,158.003525 218.039917,156.163361 218.025345,154.320587 
	C217.963608,146.515671 217.998978,138.710007 218.004120,130.432037 
z"/>
<path fill="#D5AB30" opacity="1.000000" stroke="none" 
	d="
M189.025330,110.379372 
	C190.086609,110.047394 191.145142,110.042488 192.975952,110.037262 
	C194.863113,110.923058 195.977982,111.809174 197.092865,112.695282 
	C195.350922,112.772575 193.608994,112.849869 191.429840,112.904457 
	C190.522324,112.608749 190.052032,112.335747 189.297882,112.039886 
	C189.016891,111.580170 189.019745,111.143311 189.025330,110.379372 
z"/>
<path fill="#B49A3C" opacity="1.000000" stroke="none" 
	d="
M170.559769,107.935074 
	C171.420883,107.019264 172.160324,106.385124 173.050049,105.497101 
	C173.842422,105.048325 174.484543,104.853432 175.461578,104.614334 
	C174.091202,106.374672 172.385925,108.179214 170.334747,109.987427 
	C170.138596,109.399635 170.288345,108.808197 170.559769,107.935074 
z"/>
<path fill="#D5AB30" opacity="1.000000" stroke="none" 
	d="
M163.434540,123.291763 
	C163.915085,123.027451 164.214233,123.047386 164.744415,122.989105 
	C164.827484,124.803169 164.683868,126.629814 164.253784,128.389526 
	C163.671906,127.544029 163.376495,126.765488 163.081085,125.986954 
	C163.136963,125.205177 163.192856,124.423409 163.434540,123.291763 
z"/>
<path fill="#D5AB30" opacity="1.000000" stroke="none" 
	d="
M167.242126,117.761757 
	C166.979706,116.909912 167.001877,115.868790 167.004654,114.438408 
	C167.051422,113.730568 167.179794,113.439415 167.842224,113.054230 
	C168.512070,112.927040 168.710114,112.921318 168.945892,112.949120 
	C168.983597,112.982643 169.060745,113.047676 169.060745,113.047676 
	C168.549408,114.555939 168.038055,116.064209 167.242126,117.761757 
z"/>
<path fill="#B49A3C" opacity="1.000000" stroke="none" 
	d="
M162.932480,126.234665 
	C163.376495,126.765488 163.671906,127.544029 163.973892,128.652908 
	C163.811569,129.009247 163.642685,129.035248 163.217377,129.061768 
	C162.901917,128.202332 162.842896,127.342361 162.932480,126.234665 
z"/>
<path fill="#D5AB30" opacity="1.000000" stroke="none" 
	d="
M168.974655,152.766190 
	C168.787323,152.977524 168.586044,152.949387 168.098206,152.809753 
	C168.071503,152.373825 168.331360,152.049377 168.591202,151.724930 
	C168.714371,151.992188 168.837555,152.259460 168.974655,152.766190 
z"/>
<path fill="#B49A3C" opacity="1.000000" stroke="none" 
	d="
M168.611038,111.628929 
	C168.882095,111.131393 169.153152,110.633858 169.707214,110.063217 
	C169.990265,110.414200 169.990295,110.838287 169.614044,111.535934 
	C169.028870,111.749313 168.819946,111.689125 168.611038,111.628929 
z"/>
<path fill="#B49A3C" opacity="1.000000" stroke="none" 
	d="
M177.719727,103.021408 
	C177.989807,103.150513 177.998688,103.320282 178.009003,103.745026 
	C177.823212,104.003181 177.635986,104.006371 177.170120,103.959625 
	C177.080490,103.627159 177.269516,103.344612 177.719727,103.021408 
z"/>
<path fill="#D5AB30" opacity="1.000000" stroke="none" 
	d="
M168.597015,111.660362 
	C168.819946,111.689125 169.028870,111.749313 169.559967,111.851227 
	C169.865677,112.242516 169.726944,112.533813 169.263367,112.907272 
	C169.060745,113.047676 168.983597,112.982643 168.901367,112.648941 
	C168.736053,112.129951 168.652985,111.944664 168.569901,111.759377 
	C168.569901,111.759377 168.582993,111.691795 168.597015,111.660362 
z"/>
<path fill="#F5B913" opacity="1.000000" stroke="none" 
	d="
M197.362854,112.831375 
	C195.977982,111.809174 194.863113,110.923058 193.373474,110.032288 
	C194.324677,105.656418 198.705505,106.550545 201.684326,105.044594 
	C202.517075,104.623596 203.582245,104.662346 204.806091,104.199707 
	C206.251755,103.853928 207.432144,103.798653 209.038788,103.596405 
	C209.465057,103.449432 209.482956,103.476181 209.407623,103.779312 
	C209.591644,104.346321 209.850967,104.610214 210.439301,104.914459 
	C211.205963,104.919899 211.643600,104.884987 212.081253,104.850075 
	C212.081253,104.850075 212.129517,104.847679 212.154114,104.847031 
	C212.132584,105.031609 212.086472,105.216850 212.129257,105.915634 
	C212.403214,106.706444 212.649139,106.910286 212.955933,107.040695 
	C214.250595,109.935326 215.545258,112.829964 216.839905,115.724609 
	C213.038483,116.597717 209.237045,117.470833 205.055817,118.331833 
	C204.675995,118.319710 204.653809,118.280617 204.742218,117.903732 
	C204.062988,116.778397 203.295364,116.029945 202.527725,115.281494 
	C202.527725,115.281494 202.252014,115.204163 202.138092,114.808746 
	C201.675095,113.950027 201.326004,113.486725 200.901672,112.855461 
	C200.533264,112.748505 200.240112,112.809494 199.656219,112.908890 
	C199.184799,113.021889 199.004089,113.096489 198.823364,113.171097 
	C198.426529,113.103218 198.029694,113.035339 197.362854,112.831375 
z"/>
<path fill="#B49A3C" opacity="1.000000" stroke="none" 
	d="
M198.991272,113.446388 
	C199.004089,113.096489 199.184799,113.021889 199.911377,112.964195 
	C200.630478,112.995201 200.803696,113.009315 200.976913,113.023422 
	C201.326004,113.486725 201.675095,113.950027 202.029236,114.715744 
	C201.075928,114.586006 200.117569,114.153847 198.991272,113.446388 
z"/>
<path fill="#B49A3C" opacity="1.000000" stroke="none" 
	d="
M202.586609,115.605560 
	C203.295364,116.029945 204.062988,116.778397 204.734283,117.882645 
	C203.973785,117.468842 203.309631,116.699234 202.586609,115.605560 
z"/>
<path fill="#B49A3C" opacity="1.000000" stroke="none" 
	d="
M211.970062,104.561958 
	C211.643600,104.884987 211.205963,104.919899 210.441772,104.593735 
	C210.141144,104.019600 210.167023,103.806541 210.192902,103.593483 
	C210.748215,103.820267 211.303543,104.047050 211.970062,104.561958 
z"/>
<path fill="#D5AB30" opacity="1.000000" stroke="none" 
	d="
M210.028351,103.511566 
	C210.167023,103.806541 210.141144,104.019600 210.112762,104.553383 
	C209.850967,104.610214 209.591644,104.346321 209.417938,103.792679 
	C209.503571,103.502914 209.863815,103.429649 210.028351,103.511566 
z"/>
<path fill="#D5AB30" opacity="1.000000" stroke="none" 
	d="
M212.876114,106.810043 
	C212.649139,106.910286 212.403214,106.706444 212.134247,106.201935 
	C212.368927,106.089996 212.617569,106.291573 212.876114,106.810043 
z"/>
<path fill="#B49A3C" opacity="1.000000" stroke="none" 
	d="
M168.353348,111.871094 
	C168.652985,111.944664 168.736053,112.129951 168.863647,112.615417 
	C168.710114,112.921318 168.512070,112.927040 168.018188,112.891586 
	C167.754044,112.510330 167.892197,112.221123 168.353348,111.871094 
z"/>
<path fill="#D5AB30" opacity="1.000000" stroke="none" 
	d="
M200.901672,112.855469 
	C200.803696,113.009315 200.630478,112.995201 200.202103,112.925797 
	C200.240112,112.809494 200.533264,112.748505 200.901672,112.855469 
z"/>
</svg>